<svg class="svg-icon" style="width: 1em;height: 1em;vertical-align: middle;fill: #ffffff;overflow: hidden;" viewBox="0 0 1024 1024" version="1.1"
    xmlns="http://www.w3.org/2000/svg">
    <path d="M511.20898437 709.75390625c-16.96289063 0-30.76171875-13.79882813-30.76171874-30.76171875V223.27929687L427.625 276.1015625c-12.04101563 12.04101563-31.46484375 12.04101563-43.50585938 0-12.04101563-12.04101563-12.04101563-31.46484375 0-43.50585938L489.41210937 127.30273437c12.04101563-12.04101563 31.46484375-12.04101563 43.50585938 1e-8l105.29296875 105.29296875c12.04101563 12.04101563 12.04101563 31.46484375 0 43.50585937-12.04101563 12.04101563-31.46484375 12.04101563-43.50585938 0L541.8828125 223.27929687V678.9921875c0.08789063 17.05078125-13.7109375 30.76171875-30.67382813 30.76171875z" />
    <path d="M831.48242188 876.13085938H194.890625c-25.48828125 0-46.14257813-20.7421875-46.14257813-46.14257813V508.04492187c0-25.48828125 20.7421875-46.14257813 46.14257813-46.14257812h148.44726563c19.42382813 0 35.15625 15.73242188 35.15624999 35.15625s-15.73242188 35.15625-35.15625 35.15625H219.06054687v273.60351563H807.3125V532.21484375H680.83789063c-19.42382813 0-35.15625-15.73242188-35.15625001-35.15625s15.73242188-35.15625 35.15625-35.15625h150.55664063c25.48828125 0 46.14257813 20.7421875 46.14257813 46.14257813v321.94335937c0.08789063 25.48828125-20.65429688 46.14257813-46.0546875 46.14257813z m-1e-8-343.91601563z" />
</svg>