<?xml version="1.0" ?><!DOCTYPE svg  PUBLIC '-//W3C//DTD SVG 1.1//EN'  'http://www.w3.org/Graphics/SVG/1.1/DTD/svg11.dtd'>
<svg height="100%" style="fill-rule: evenodd; stroke-linejoin: round; clip-rule: evenodd; stroke-miterlimit: 2" version="1.1" viewBox="0 0 512 512" width="100%" xml:space="preserve"
  xmlns="http://www.w3.org/2000/svg"
  xmlns:serif="http://www.serif.com/"
  xmlns:xlink="http://www.w3.org/1999/xlink">
  <path fill="#4f7992" d="M 255 512 l 0.2 0 l -0.1 0 l -0.1 0 Z m 1.8 0 l -0.1 0 l 0.2 0 l -0.1 0 Z m -2.6 0 l 0.2 0 l -0.1 0 l -0.1 0 Z m 3.4 0 l -0.1 0 l 0.2 0 l -0.1 0 Z m -4.2 0 l 0.2 0 l -0.1 0 l 0 0 Z m 5 0 l -0.1 0 l 0.2 0 l 0 0 Z m 0.8 0 l -0.1 0 l 0.2 0 l -0.2 0 Z m -6.8 0 l 0.2 0 l -0.1 0 l -0.2 0 Z m 7.6 0 l -0.1 0 l 0.3 0 l -0.1 0 Z m -8.4 0 l 0.3 0 l -0.1 0 l -0.1 0 Z m 9.2 0 l -0.2 0 l 0.3 0 l -0.1 0 Z m -10 0 l 0.3 0 l -0.2 0 l -0.1 0 Z m -0.9 0 l 0.2 0 l 0 0 l -0.2 0 Z m 11.7 0 l 0 0 l 0.2 0 l -0.2 0 Z m -12.6 0 l 0.3 0 l -0.1 0 l -0.2 0 Z m 13.4 0 l -0.1 0 l 0.3 0 l -0.2 0 Z m 0.8 0 l -0.2 0 l 0.3 0 l -0.1 0 Z m -15 0 l 0.3 0 l -0.2 0 l -0.1 0 Z m -0.7 0 l 0.2 0 l -0.2 0 l -0.2 0 l 0.2 0 Z m 16.5 0 l -0.2 0 l 0.2 0 l 0.2 0 l -0.2 0 Z m 0.8 0 l -0.1 0 l 0.3 0 l -0.2 0 Z m -18.4 0 l 0.3 0 l -0.1 0 l -0.2 0 Z m -0.7 0 l 0.4 0 l -0.2 0 l -0.2 0 Z m 19.9 0 l -0.2 0 l 0.4 0 l -0.2 0 Z m -20.7 0 l 0.4 0 l -0.3 0 l -0.1 0 Z m 21.5 0 l -0.3 0 l 0.4 0 l -0.1 0 Z m -22.5 0 l 0.4 0 l -0.1 0 l -0.3 0 Z m 23.3 0 l -0.1 0 l 0.4 0 l -0.3 0 Z m -24.1 0 l 0.4 0 l -0.2 0 l -0.2 0 Z m 24.9 0 l -0.2 0 l 0.4 0 l -0.2 0 Z m -25.6 0 l 0.4 0 l -0.3 0 l -0.1 0 Z m 26.4 0 l -0.3 0 l 0.4 0 l -0.1 0 Z m 0.8 0 l -0.4 0 l 0.3 0 l 0.4 0 l -0.3 0 Z m -27.9 0 l 0.3 0 l -0.4 0 l -0.3 0 l 0.4 0 Z m 28.7 0 l -0.2 0 l 0.4 0 l -0.2 0 Z m -29.8 0 l 0.4 0 l -0.2 0 l -0.2 0 Z m -0.7 0 l 0.4 0 l -0.3 0 l -0.2 0 Z m 31.4 0 l -0.3 0 l 0.4 0 l -0.2 0 Z m -32.1 -0.1 l 0.4 0 l -0.3 0 l -0.3 0 l 0.3 0 Z m 32.9 0 l -0.3 0 l 0.4 0 l 0.3 0 l -0.3 0 Z m 0.8 -0.1 l -0.1 0 l 0.4 0 l -0.3 0 Z m -34.8 0 l 0.4 0 l -0.1 0 l -0.3 0 Z m -0.7 -0.1 l 0.4 0 l -0.2 0 l -0.2 0 Z m 36.3 0 l -0.2 0 l 0.4 0 l -0.2 0 Z m -37 -0.1 l 0.3 0 l -0.3 0 l -0.1 0 Z m 37.8 0 l -0.3 0 l 0.3 0 l -0.1 0 Z m -38.8 -0.1 l 0.3 0 l -0.1 0 l -0.2 0 Z m 39.6 0 l -0.1 0 l 0.3 0 l -0.2 0 Z m 0.8 -0.1 l -0.1 0 l 0.3 0 l -0.2 0 Z m -41.2 0 l 0.3 0 l -0.1 0 l -0.2 0 Z m -0.7 -0.1 l 0.3 0 l -0.2 0 l -0.1 0 Z m 42.7 0 l -0.2 0 l 0.3 0 l -0.1 0 Z m -43.5 -0.1 l 0.1 0 l 0 0 l -0.1 0 Z m 44.3 0 l 0 0 l 0.1 0 l -0.1 0 Z m 0.8 -0.1 l -0.1 0 l 0.2 0 l -0.1 0 Z m -46 0 l 0.2 0 l -0.1 0 l -0.1 0 Z m -0.8 -0.1 l 0.1 0 l -0.1 0 l -0.1 0 Z m 47.5 0 l -0.1 0 l 0.1 0 l -0.1 0 Z m -63.7 -2 c -122.3 -19.2 -216 -125.2 -216 -252.9 c 0 -141.3 114.7 -256 256 -256 c 141.3 0 256 114.7 256 256 c 0 127.7 -93.7 233.7 -216 252.9 l 0 -178.9 l 59.6 0 l 11.3 -74 l -71 0 l 0 -48 c 0 -20.2 9.9 -40 41.7 -40 l 32.3 0 l 0 -63 c 0 0 -29.3 -5 -57.3 -5 c -58.5 0 -96.7 35.4 -96.7 99.6 l 0 56.4 l -65 0 l 0 74 l 65 0 l 0 178.9 Z">
    </path>
</svg>