<?xml version="1.0" encoding="utf-8"?>
<svg height="60px" version="1.1" viewBox="0 0 60 60" width="60px" xmlns="http://www.w3.org/2000/svg">
  <title />
  <g>
    <path 
      d="M 49.02 42.305 L 49.02 20.382 L 36.327 31.343 L 49.02 42.305 Z M 12.096 42.305 L 12.096 20.382 L 24.789 31.343 L 12.096 42.305 Z M 25.883 32.567 L 30.558 36.404 L 35.16 32.567 L 47.866 43.458 L 13.25 43.458 L 25.883 32.567 Z M 59.654 30 C 59.654 46.474 46.377 59.828 30 59.828 C 13.623 59.828 0.346 46.474 0.346 30 C 0.346 13.526 13.623 0.17200000000000001 30 0.17200000000000001 C 46.377 0.17200000000000001 59.654 13.526 59.654 30 Z M 30.558 34.228 L 47.866 19.228 L 13.25 19.228 L 30.558 34.228 Z"
      fill-rule="evenodd" stroke="none" stroke-width="1" style="fill: rgb(255, 255, 255);" />
  </g>
</svg>